<?xml version="1.0" encoding="UTF-8" standalone="no"?>
<!-- Generator: Adobe Illustrator 19.0.0, SVG Export Plug-In . SVG Version: 6.00 Build 0)  -->

<svg
   version="1.1"
   id="Layer_1"
   x="0px"
   y="0px"
   viewBox="0 0 512 512"
   style="enable-background:new 0 0 512 512;"
   xml:space="preserve"
   sodipodi:docname="ger.svg"
   inkscape:version="1.2.1 (9c6d41e410, 2022-07-14)"
   xmlns:inkscape="http://www.inkscape.org/namespaces/inkscape"
   xmlns:sodipodi="http://sodipodi.sourceforge.net/DTD/sodipodi-0.dtd"
   xmlns="http://www.w3.org/2000/svg"
   xmlns:svg="http://www.w3.org/2000/svg"><defs
   id="defs41" /><sodipodi:namedview
   id="namedview39"
   pagecolor="#505050"
   bordercolor="#eeeeee"
   borderopacity="1"
   inkscape:showpageshadow="0"
   inkscape:pageopacity="0"
   inkscape:pagecheckerboard="0"
   inkscape:deskcolor="#505050"
   showgrid="false"
   inkscape:zoom="1.4183568"
   inkscape:cx="368.73656"
   inkscape:cy="394.82309"
   inkscape:window-width="2560"
   inkscape:window-height="1377"
   inkscape:window-x="-8"
   inkscape:window-y="-8"
   inkscape:window-maximized="1"
   inkscape:current-layer="Layer_1" />
<circle
   style="fill:#d40000"
   cx="256"
   cy="-256"
   r="256"
   id="circle2"
   transform="rotate(90)" />
<path
   style="fill:#d80027"
   d="m 256,512 c 110.071,0 203.906,-69.472 240.077,-166.957 H 15.922 C 52.094,442.528 145.929,512 256,512 Z"
   id="path4" />
<path
   style="fill:#000000"
   d="M 256,0 C 145.929,0 52.094,69.473 15.923,166.957 l 480.154,0 C 459.906,69.473 366.071,0 256,0 Z"
   id="path6" />
<g
   id="g8">
</g>
<g
   id="g10">
</g>
<g
   id="g12">
</g>
<g
   id="g14">
</g>
<g
   id="g16">
</g>
<g
   id="g18">
</g>
<g
   id="g20">
</g>
<g
   id="g22">
</g>
<g
   id="g24">
</g>
<g
   id="g26">
</g>
<g
   id="g28">
</g>
<g
   id="g30">
</g>
<g
   id="g32">
</g>
<g
   id="g34">
</g>
<g
   id="g36">
</g>
<path
   style="fill:#ffff00;stroke-width:0.498539"
   d="M 242.7887,511.42737 C 217.27479,509.73093 197.64462,506.02219 175.48588,498.71179 118.03546,479.75828 68.225536,439.86538 36.796063,387.63474 29.667914,375.78892 19.320097,354.48746 16.73094,346.32975 l -0.346329,-1.09119 H 255.9664 c 131.76999,0 239.5818,0.12484 239.5818,0.27742 0,0.89196 -5.70711,14.19198 -9.19602,21.43069 -12.20667,25.32609 -27.65089,47.28482 -47.57636,67.6445 -29.16072,29.79619 -62.86597,50.93059 -102.01243,63.96548 -21.61297,7.19663 -42.28067,11.24201 -64.80162,12.68392 -7.20341,0.4612 -23.47879,0.56541 -29.17307,0.1868 z"
   id="path462" /></svg>
